<?xml version="1.0" standalone="no"?>
<!DOCTYPE svg PUBLIC "-//W3C//DTD SVG 20010904//EN"
 "http://www.w3.org/TR/2001/REC-SVG-20010904/DTD/svg10.dtd">
<svg version="1.0" xmlns="http://www.w3.org/2000/svg"
 width="320.000000pt" height="278.000000pt" viewBox="0 0 320.000000 278.000000"
 preserveAspectRatio="xMidYMid meet">

<g transform="translate(0.000000,278.000000) scale(0.100000,-0.100000)"
fill="#000000" stroke="none">
<path d="M2230 2681 c-72 -23 -173 -95 -270 -192 -58 -57 -71 -79 -50 -79 6 0
78 -68 160 -151 l150 -150 106 -2 c88 -2 107 1 114 14 5 9 23 22 40 29 17 7
38 26 46 43 15 28 15 29 -2 22 -37 -17 -142 -17 -199 0 -31 8 -53 20 -50 25 4
6 57 10 118 10 124 0 157 6 157 26 0 13 -37 26 -113 39 -46 7 -87 25 -87 37 0
4 31 8 69 8 38 0 76 3 85 6 26 10 18 49 -19 98 -19 25 -50 76 -69 113 -18 38
-43 76 -54 87 -23 20 -93 30 -132 17z"/>
<path d="M2350 390 c13 -9 129 -15 119 -6 -2 2 -33 6 -69 10 -45 5 -60 4 -50
-4z"/>
</g>
</svg>
